<?xml version="1.0" encoding="iso-8859-1"?>
<!-- Generator: Adobe Illustrator 19.0.0, SVG Export Plug-In . SVG Version: 6.00 Build 0)  -->
<svg version="1.1" id="Layer_1" xmlns="http://www.w3.org/2000/svg" xmlns:xlink="http://www.w3.org/1999/xlink" x="0px" y="0px"
	 viewBox="0 0 512 512" style="enable-background:new 0 0 512 512;" xml:space="preserve">

<path style="fill:#2B4457;" d="M97.224,425.81c-10.537,0-19.172-8.604-19.172-19.164V169.853c0-10.557,8.635-19.2,19.172-19.2
	h111.365c10.534,0,19.169,8.643,19.169,19.2v236.792c0,10.56-8.635,19.164-19.169,19.164H97.224z"/>
<g>
	<path style="fill:#213546;" d="M169.5,405.988c0,2.537-2.028,4.58-4.567,4.58h-24.051c-2.504,0-4.595-2.043-4.595-4.58v-1.917
		c0-2.511,2.092-4.588,4.595-4.588h24.051c2.54,0,4.567,2.076,4.567,4.588V405.988z"/>
	<path style="fill:#213546;" d="M158.451,171.433c0,3.052-2.442,5.535-5.509,5.535c-3.103,0-5.553-2.483-5.553-5.535
		c0-3.028,2.45-5.517,5.553-5.517C156.006,165.916,158.451,168.404,158.451,171.433z"/>
</g>
<path style="fill:#CCCBCA;" d="M155.51,171.433c0,1.449-1.126,2.619-2.57,2.619c-1.441,0-2.619-1.17-2.619-2.619
	c0-1.416,1.18-2.606,2.619-2.606C154.383,168.827,155.51,170.017,155.51,171.433z"/>
<rect x="88.909" y="192.256" style="fill:#FFFFFF;" width="127.987" height="191.974"/>
<rect x="88.909" y="192.256" style="fill:#FFD55C;" width="127.987" height="19.377"/>
<rect x="100.326" y="234.931" style="fill:#FF6D3B;" width="105.165" height="60.541"/>
<rect x="100.326" y="306.432" style="fill:#FFD55C;" width="105.165" height="21.133"/>
<rect x="100.326" y="338.534" style="fill:#2B4457;" width="105.165" height="4.611"/>
<g>
	<rect x="100.326" y="350.08" style="fill:#CCCBCA;" width="105.165" height="4.603"/>
	<rect x="100.326" y="361.574" style="fill:#CCCBCA;" width="52.567" height="4.613"/>
</g>
<path style="fill:#FF6D3B;" d="M399.099,86.19H263.47c-2.378,0-4.329,1.946-4.329,4.324v92.347c0,2.386,1.953,4.332,4.329,4.332
	h18.87v12.805h-46.638l58.179,11.538v-11.538v-12.805h105.221c2.378,0,4.329-1.948,4.329-4.332V90.514
	C403.43,88.136,401.477,86.19,399.099,86.19z"/>
<path style="fill:#2B4457;" d="M430.863,158.026H334.06c-1.705,0-3.095,1.388-3.095,3.09v65.905c0,1.697,1.39,3.087,3.095,3.087
	h13.478v7.296h-16.573l24.804,8.241v-8.241v-7.296h75.095c1.697,0,3.087-1.39,3.087-3.087v-65.905
	C433.951,159.414,432.561,158.026,430.863,158.026z"/>
<g>
</g>
<g>
</g>
<g>
</g>
<g>
</g>
<g>
</g>
<g>
</g>
<g>
</g>
<g>
</g>
<g>
</g>
<g>
</g>
<g>
</g>
<g>
</g>
<g>
</g>
<g>
</g>
<g>
</g>
</svg>
